<svg xmlns="http://www.w3.org/2000/svg" width="163.672" height="37.948" viewBox="0 0 163.672 37.948"><defs><style>.a{fill:#1665fa;}.b{fill:#213344;font-size:26px;font-family:Poppins-SemiBold, Poppins;font-weight:600;}</style></defs><path class="a" d="M44.6,23.673H43.453V16.4a3.135,3.135,0,0,0-1.008-2.28L35.305,7.4a3.542,3.542,0,0,0-2.423-.948H29.731V3.228A3.335,3.335,0,0,0,26.3,0H3.43A3.335,3.335,0,0,0,0,3.228V24.75a3.335,3.335,0,0,0,3.43,3.228H4.574a6.67,6.67,0,0,0,6.861,6.456A6.67,6.67,0,0,0,18.3,27.978h9.148A6.67,6.67,0,0,0,34.3,34.434a6.67,6.67,0,0,0,6.861-6.456H44.6A1.115,1.115,0,0,0,45.74,26.9V24.75A1.115,1.115,0,0,0,44.6,23.673ZM11.435,31.206a3.234,3.234,0,1,1,0-6.456,3.234,3.234,0,1,1,0,6.456Zm22.87,0a3.234,3.234,0,1,1,3.43-3.228A3.335,3.335,0,0,1,34.3,31.206Zm5.717-13.989H29.731V9.685h3.152l7.14,6.719Z" transform="translate(0 3.513)"/><text class="b" transform="translate(58.672 27)"><tspan x="0" y="0">FastDeli</tspan></text></svg>